<svg width="20" height="27" viewBox="0 0 20 27" fill="none" xmlns="http://www.w3.org/2000/svg">
<path d="M5.93613 8.70893C7.20552 7.95256 8.24446 7.26496 8.60143 7.04749C8.96 6.83961 8.94547 6.29913 8.63973 5.79382C8.33399 5.28212 5.81928 1.06856 5.81928 1.06856C5.42389 0.411338 4.99654 -0.261878 4.38345 0.102711C3.77197 0.467299 3.31576 0.735946 1.74062 1.6746C0.16229 2.61166 -1.92351 7.8806 3.55104 17.0689C9.03518 26.2603 14.6682 26.9352 16.2481 25.9949C17.8233 25.0594 18.2811 24.786 18.8894 24.4262C19.5025 24.06 19.1167 23.3612 18.7229 22.6992C18.7229 22.6992 16.2113 18.4888 15.9056 17.9739C15.6031 17.467 15.1308 17.2 14.7738 17.4079C14.4185 17.6222 13.3219 18.2042 12.0493 18.9638C10.7783 19.7153 9.36178 17.8092 7.51772 14.7102C5.67367 11.6144 4.66354 9.45889 5.93613 8.70893Z" fill="#68B888"/>
</svg>
