<svg width="30" height="40" viewBox="0 0 30 40" fill="none" xmlns="http://www.w3.org/2000/svg">
<path d="M9.02486 13.2404C10.9547 12.0905 12.5343 11.0451 13.077 10.7145C13.6221 10.3984 13.6 9.57674 13.1352 8.80851C12.6704 8.03055 8.84721 1.62456 8.84721 1.62456C8.2461 0.625368 7.59638 -0.39814 6.66429 0.156154C5.73463 0.710448 5.04104 1.11888 2.64632 2.54594C0.246735 3.97058 -2.92436 11.9811 5.39874 25.9503C13.7364 39.9243 22.3005 40.9503 24.7025 39.5208C27.0972 38.0986 27.7933 37.6828 28.7181 37.1358C29.6502 36.5791 29.0637 35.5167 28.465 34.5102C28.465 34.5102 24.6466 28.1091 24.1817 27.3263C23.7218 26.5556 23.0038 26.1496 22.4611 26.4657C21.9208 26.7915 20.2537 27.6764 18.3189 28.8311C16.3866 29.9738 14.233 27.0759 11.4294 22.3644C8.62583 17.6577 7.0901 14.3806 9.02486 13.2404Z" fill="#68B888"/>
</svg>
